<svg width="29" height="24" viewBox="0 0 29 24" fill="none" xmlns="http://www.w3.org/2000/svg">
<path d="M22.9141 4V20H20.5V4H22.9141Z" fill="#3559C7"/>
<path d="M7.0625 20H4.5L10.2578 4H13.0469L18.8047 20H16.2422L11.7188 6.90625H11.5938L7.0625 20ZM7.49219 13.7344H15.8047V15.7656H7.49219V13.7344Z" fill="#3559C7"/>
<path d="M5.5 1L6.31027 3.18973L8.5 4L6.31027 4.81027L5.5 7L4.68973 4.81027L2.5 4L4.68973 3.18973L5.5 1Z" fill="#3559C7"/>
<path d="M26.5 16L27.0402 17.4598L28.5 18L27.0402 18.5402L26.5 20L25.9598 18.5402L24.5 18L25.9598 17.4598L26.5 16Z" fill="#3559C7"/>
</svg>
