<svg width="23" height="22" viewBox="0 0 23 22" fill="none" xmlns="http://www.w3.org/2000/svg">
<path d="M11.5 20.1L10 21.4C3.4 15.5 0 12.4 0 8.6C0 7.4 0.4 6.3 1 5.4C1 5.6 1 5.8 1 6C1 10.7 4.9 14.2 11.5 20.1ZM13.1 16C17.8 11.7 21 8.9 21.1 6C21.1 4 19.6 2.5 17.6 2.5C16 2.5 14.5 3.5 14 4.9H12.1C11.5 3.5 10 2.5 8.5 2.5C6.5 2.5 5 4 5 6C5 8.9 8.1 11.7 12.9 16L13 16.1M17.5 0.5C20.6 0.5 23 2.9 23 6C23 9.7 19.6 12.8 13 18.8C6.4 12.9 3 9.8 3 6C3 2.9 5.4 0.5 8.5 0.5C10.2 0.5 11.9 1.3 13 2.6C14.1 1.3 15.8 0.5 17.5 0.5Z" fill="#0B1228"/>
</svg>
