<svg width="26" height="28" viewBox="0 0 26 28" fill="none" xmlns="http://www.w3.org/2000/svg">
<path d="M1.24001 16.0534C2.01334 14.2134 3.09334 12.8534 3.89334 12.5601C3.88001 11.4934 4.08001 10.8267 4.41334 10.2934C4.41334 10.2534 4.33334 9.81341 4.62668 9.26675C4.82668 4.46675 7.94668 0.666748 13 0.666748C18.0533 0.666748 21.1733 4.46675 21.3733 9.26675C21.6667 9.81341 21.5867 10.2534 21.5867 10.2934C21.92 10.8267 22.12 11.4934 22.1067 12.5601C22.9067 12.8534 23.9867 14.2134 24.76 16.0667C25.76 18.4134 25.92 20.6667 25.12 21.0667C24.5733 21.3334 23.7067 20.6667 22.8933 19.4934C22.5733 20.8001 21.7733 22.0001 20.64 22.9467C21.84 23.3867 22.6133 24.1067 22.6133 24.9201C22.6133 26.2534 20.5067 27.3334 17.92 27.3334C15.5733 27.3334 13.6667 26.4534 13.28 25.3334H12.72C12.3333 26.4534 10.4267 27.3334 8.08001 27.3334C5.49334 27.3334 3.38668 26.2534 3.38668 24.9201C3.38668 24.1067 4.16001 23.3867 5.36001 22.9467C4.22668 22.0001 3.42668 20.8001 3.10668 19.4934C2.29334 20.6667 1.42668 21.3334 0.88001 21.0667C0.0800101 20.6667 0.24001 18.4134 1.24001 16.0534Z" fill="#EBEFFA"/>
</svg>
